<?xml version="1.0" encoding="UTF-8" standalone="no"?>
<!-- Created with Inkscape (http://www.inkscape.org/) -->

<svg
   xmlns:dc="http://purl.org/dc/elements/1.1/"
   xmlns:cc="http://creativecommons.org/ns#"
   xmlns:rdf="http://www.w3.org/1999/02/22-rdf-syntax-ns#"
   xmlns:svg="http://www.w3.org/2000/svg"
   xmlns="http://www.w3.org/2000/svg"
   version="1.1"
   width="320.44501"
   height="530.92352"
   id="svg2">
  <defs
     id="defs4">
    <marker
       refX="0"
       refY="0"
       orient="auto"
       id="Arrow1Mend"
       style="overflow:visible">
      <path
         d="M 0,0 5,-5 -12.5,0 5,5 0,0 z"
         transform="matrix(-0.4,0,0,-0.4,-4,0)"
         id="path3847"
         style="fill-rule:evenodd;stroke:#000000;stroke-width:1pt;marker-start:none" />
    </marker>
    <marker
       refX="0"
       refY="0"
       orient="auto"
       id="Arrow1Lend"
       style="overflow:visible">
      <path
         d="M 0,0 5,-5 -12.5,0 5,5 0,0 z"
         transform="matrix(-0.8,0,0,-0.8,-10,0)"
         id="path3841"
         style="fill-rule:evenodd;stroke:#000000;stroke-width:1pt;marker-start:none" />
    </marker>
  </defs>
  <metadata
     id="metadata7">
    <rdf:RDF>
      <cc:Work
         rdf:about="">
        <dc:format>image/svg+xml</dc:format>
        <dc:type
           rdf:resource="http://purl.org/dc/dcmitype/StillImage" />
        <dc:title></dc:title>
      </cc:Work>
    </rdf:RDF>
  </metadata>
  <g
     transform="translate(799.48016,880.0287)"
     id="layer1">
    <g
       id="g6330">
      <g
         transform="translate(-881.48016,-846.48016)"
         id="g6118">
        <rect
           width="76.96032"
           height="76.96032"
           x="84.519844"
           y="-260.84235"
           transform="scale(1,-1)"
           id="rect6120"
           style="fill:#ffffff;stroke:#000000;stroke-width:5.03968096;stroke-miterlimit:4;stroke-dasharray:none" />
        <rect
           width="76.96032"
           height="76.96032"
           x="84.519844"
           y="-338.84235"
           transform="scale(1,-1)"
           id="rect6122"
           style="fill:#ffffff;stroke:#000000;stroke-width:5.03968096;stroke-miterlimit:4;stroke-dasharray:none" />
        <rect
           width="76.96032"
           height="76.96032"
           x="84.519844"
           y="-416.84235"
           transform="scale(1,-1)"
           id="rect6124"
           style="fill:#ffffff;stroke:#000000;stroke-width:5.03968096;stroke-miterlimit:4;stroke-dasharray:none" />
        <rect
           width="76.96032"
           height="76.96032"
           x="84.519844"
           y="-494.84235"
           transform="scale(1,-1)"
           id="rect6126"
           style="fill:#ffffff;stroke:#000000;stroke-width:5.03968096;stroke-miterlimit:4;stroke-dasharray:none" />
      </g>
      <text
         x="-698"
         y="-357.63782"
         id="text6128"
         xml:space="preserve"
         style="font-size:40px;font-style:normal;font-weight:normal;line-height:125%;letter-spacing:0px;word-spacing:0px;fill:#000000;fill-opacity:1;stroke:none;font-family:Sans"><tspan
           x="-698"
           y="-357.63782"
           id="tspan6130">.as</tspan></text>
      <g
         transform="matrix(0.99999865,0,0,1,-1083.5126,-1241.0287)"
         id="g6132"
         style="fill:#ffffff">
        <path
           d="m 370.15263,391.73103 c 0,0 45.11241,-15.88458 64.73521,-6.63951 10.82797,5.10148 8.11069,27.91696 19.91853,29.87779 29.64891,4.92353 89.63337,-17.18449 89.63337,-16.59877 0,0 -35.60047,28.0406 -61.41546,38.17718 15.0973,9.40426 64.73522,4.97963 64.73522,4.97963 0,0 -67.23529,33.9182 -109.5519,24.89816 -11.61868,-2.47659 -6.13558,-25.91196 -16.59878,-31.53767 -14.6925,-7.89967 -49.79631,4.97963 -49.79631,4.97963 z"
           id="path6134"
           style="fill:#ffffff;stroke:#000000;stroke-width:5;stroke-linecap:butt;stroke-linejoin:miter;stroke-miterlimit:4;stroke-opacity:1;stroke-dasharray:none" />
        <path
           d="M 365.173,390.07116 361.85324,584.2768"
           id="path6136"
           style="fill:#ffffff;stroke:#000000;stroke-width:10;stroke-linecap:butt;stroke-linejoin:miter;stroke-miterlimit:4;stroke-opacity:1;stroke-dasharray:none" />
        <path
           d="m 378.45202,378.45203 a 14.938895,14.938895 0 1 1 -29.87779,0 14.938895,14.938895 0 1 1 29.87779,0 z"
           id="path6138"
           style="fill:#ffffff;stroke:#000000;stroke-width:5;stroke-miterlimit:4;stroke-dasharray:none" />
      </g>
      <text
         x="-698"
         y="-695.63782"
         id="text6140"
         xml:space="preserve"
         style="font-size:40px;font-style:normal;font-weight:normal;line-height:125%;letter-spacing:0px;word-spacing:0px;fill:#000000;fill-opacity:1;stroke:none;font-family:Sans"><tspan
           x="-698"
           y="-695.63782"
           id="tspan6142">'newName'</tspan></text>
      <path
         d="m -660,-407.63782 c 84.18299,-116.19281 108.20558,-212.83348 -20,-260"
         id="path6144"
         style="fill:none;stroke:#000000;stroke-width:5;stroke-linecap:butt;stroke-linejoin:miter;stroke-miterlimit:4;stroke-opacity:1;stroke-dasharray:none;marker-end:url(#Arrow1Mend)" />
    </g>
  </g>
</svg>
