<?xml version="1.0" encoding="UTF-8" standalone="no"?>
<!-- Created with Inkscape (http://www.inkscape.org/) -->

<svg
   xmlns:dc="http://purl.org/dc/elements/1.1/"
   xmlns:cc="http://creativecommons.org/ns#"
   xmlns:rdf="http://www.w3.org/1999/02/22-rdf-syntax-ns#"
   xmlns:svg="http://www.w3.org/2000/svg"
   xmlns="http://www.w3.org/2000/svg"
   version="1.1"
   width="684.185"
   height="633.86914"
   id="svg2">
  <defs
     id="defs4">
    <marker
       refX="0"
       refY="0"
       orient="auto"
       id="Arrow1Mend"
       style="overflow:visible">
      <path
         d="M 0,0 5,-5 -12.5,0 5,5 0,0 z"
         transform="matrix(-0.4,0,0,-0.4,-4,0)"
         id="path3847"
         style="fill-rule:evenodd;stroke:#000000;stroke-width:1pt;marker-start:none" />
    </marker>
    <marker
       refX="0"
       refY="0"
       orient="auto"
       id="Arrow1Lend"
       style="overflow:visible">
      <path
         d="M 0,0 5,-5 -12.5,0 5,5 0,0 z"
         transform="matrix(-0.8,0,0,-0.8,-10,0)"
         id="path3841"
         style="fill-rule:evenodd;stroke:#000000;stroke-width:1pt;marker-start:none" />
    </marker>
  </defs>
  <metadata
     id="metadata7">
    <rdf:RDF>
      <cc:Work
         rdf:about="">
        <dc:format>image/svg+xml</dc:format>
        <dc:type
           rdf:resource="http://purl.org/dc/dcmitype/StillImage" />
        <dc:title></dc:title>
      </cc:Work>
    </rdf:RDF>
  </metadata>
  <g
     transform="translate(155.53449,787.11797)"
     id="g6974">
    <g
       transform="translate(-1.4801636,-968.48016)"
       id="g6346">
      <rect
         width="76.96032"
         height="76.96032"
         x="84.519844"
         y="-260.84235"
         transform="scale(1,-1)"
         id="rect6348"
         style="fill:#ffffff;stroke:#000000;stroke-width:5.03968096;stroke-miterlimit:4;stroke-dasharray:none" />
      <rect
         width="76.96032"
         height="76.96032"
         x="84.519844"
         y="-338.84235"
         transform="scale(1,-1)"
         id="rect6350"
         style="fill:#ffffff;stroke:#000000;stroke-width:5.03968096;stroke-miterlimit:4;stroke-dasharray:none" />
      <rect
         width="76.96032"
         height="76.96032"
         x="84.519844"
         y="-416.84235"
         transform="scale(1,-1)"
         id="rect6352"
         style="fill:#ffffff;stroke:#000000;stroke-width:5.03968096;stroke-miterlimit:4;stroke-dasharray:none" />
      <rect
         width="76.96032"
         height="76.96032"
         x="84.519844"
         y="-494.84235"
         transform="scale(1,-1)"
         id="rect6354"
         style="fill:#ffffff;stroke:#000000;stroke-width:5.03968096;stroke-miterlimit:4;stroke-dasharray:none" />
    </g>
    <text
       x="173.43904"
       y="-482.46262"
       id="text6356"
       xml:space="preserve"
       style="font-size:40px;font-style:normal;font-weight:normal;line-height:125%;letter-spacing:0px;word-spacing:0px;fill:#000000;fill-opacity:1;stroke:none;font-family:Sans"><tspan
         x="173.43904"
         y="-482.46262"
         id="tspan6358">.branch</tspan></text>
    <g
       transform="matrix(0.99999865,0,0,1,-501.60825,-742.52566)"
       id="g6390"
       style="fill:#ffffff">
      <path
         d="m 370.15263,391.73103 c 0,0 45.11241,-15.88458 64.73521,-6.63951 10.82797,5.10148 8.11069,27.91696 19.91853,29.87779 29.64891,4.92353 89.63337,-17.18449 89.63337,-16.59877 0,0 -35.60047,28.0406 -61.41546,38.17718 15.0973,9.40426 64.73522,4.97963 64.73522,4.97963 0,0 -67.23529,33.9182 -109.5519,24.89816 -11.61868,-2.47659 -6.13558,-25.91196 -16.59878,-31.53767 -14.6925,-7.89967 -49.79631,4.97963 -49.79631,4.97963 z"
         id="path6392"
         style="fill:#ffffff;stroke:#000000;stroke-width:5;stroke-linecap:butt;stroke-linejoin:miter;stroke-miterlimit:4;stroke-opacity:1;stroke-dasharray:none" />
      <path
         d="M 365.173,390.07116 361.85324,584.2768"
         id="path6394"
         style="fill:#ffffff;stroke:#000000;stroke-width:10;stroke-linecap:butt;stroke-linejoin:miter;stroke-miterlimit:4;stroke-opacity:1;stroke-dasharray:none" />
      <path
         d="m 378.45202,378.45203 a 14.938895,14.938895 0 1 1 -29.87779,0 14.938895,14.938895 0 1 1 29.87779,0 z"
         id="path6396"
         style="fill:#ffffff;stroke:#000000;stroke-width:5;stroke-miterlimit:4;stroke-dasharray:none" />
    </g>
    <g
       transform="matrix(0.99999865,0,0,1,-261.60825,-742.52566)"
       id="g6398"
       style="fill:#ffffff">
      <path
         d="m 370.15263,391.73103 c 0,0 45.11241,-15.88458 64.73521,-6.63951 10.82797,5.10148 8.11069,27.91696 19.91853,29.87779 29.64891,4.92353 89.63337,-17.18449 89.63337,-16.59877 0,0 -35.60047,28.0406 -61.41546,38.17718 15.0973,9.40426 64.73522,4.97963 64.73522,4.97963 0,0 -67.23529,33.9182 -109.5519,24.89816 -11.61868,-2.47659 -6.13558,-25.91196 -16.59878,-31.53767 -14.6925,-7.89967 -49.79631,4.97963 -49.79631,4.97963 z"
         id="path6400"
         style="fill:#ffffff;stroke:#000000;stroke-width:5;stroke-linecap:butt;stroke-linejoin:miter;stroke-miterlimit:4;stroke-opacity:1;stroke-dasharray:none" />
      <path
         d="M 365.173,390.07116 361.85324,584.2768"
         id="path6402"
         style="fill:#ffffff;stroke:#000000;stroke-width:10;stroke-linecap:butt;stroke-linejoin:miter;stroke-miterlimit:4;stroke-opacity:1;stroke-dasharray:none" />
      <path
         d="m 378.45202,378.45203 a 14.938895,14.938895 0 1 1 -29.87779,0 14.938895,14.938895 0 1 1 29.87779,0 z"
         id="path6404"
         style="fill:#ffffff;stroke:#000000;stroke-width:5;stroke-miterlimit:4;stroke-dasharray:none" />
    </g>
    <g
       transform="matrix(0.99999865,0,0,1,-21.608251,-742.52566)"
       id="g6406"
       style="fill:#ffffff">
      <path
         d="m 370.15263,391.73103 c 0,0 45.11241,-15.88458 64.73521,-6.63951 10.82797,5.10148 8.11069,27.91696 19.91853,29.87779 29.64891,4.92353 89.63337,-17.18449 89.63337,-16.59877 0,0 -35.60047,28.0406 -61.41546,38.17718 15.0973,9.40426 64.73522,4.97963 64.73522,4.97963 0,0 -67.23529,33.9182 -109.5519,24.89816 -11.61868,-2.47659 -6.13558,-25.91196 -16.59878,-31.53767 -14.6925,-7.89967 -49.79631,4.97963 -49.79631,4.97963 z"
         id="path6408"
         style="fill:#ffffff;stroke:#000000;stroke-width:5;stroke-linecap:butt;stroke-linejoin:miter;stroke-miterlimit:4;stroke-opacity:1;stroke-dasharray:none" />
      <path
         d="M 365.173,390.07116 361.85324,584.2768"
         id="path6410"
         style="fill:#ffffff;stroke:#000000;stroke-width:10;stroke-linecap:butt;stroke-linejoin:miter;stroke-miterlimit:4;stroke-opacity:1;stroke-dasharray:none" />
      <path
         d="m 378.45202,378.45203 a 14.938895,14.938895 0 1 1 -29.87779,0 14.938895,14.938895 0 1 1 29.87779,0 z"
         id="path6412"
         style="fill:#ffffff;stroke:#000000;stroke-width:5;stroke-miterlimit:4;stroke-dasharray:none" />
    </g>
    <path
       d="m 200,-467.63782 -240,80"
       id="path6416"
       style="fill:none;stroke:#000000;stroke-width:5;stroke-linecap:butt;stroke-linejoin:miter;stroke-miterlimit:4;stroke-opacity:1;stroke-dasharray:none;marker-end:url(#Arrow1Mend)" />
    <path
       d="m 240,-467.63782 -40,80"
       id="path6418"
       style="fill:none;stroke:#000000;stroke-width:5;stroke-linecap:butt;stroke-linejoin:miter;stroke-miterlimit:4;stroke-opacity:1;stroke-dasharray:none;marker-end:url(#Arrow1Mend)" />
    <path
       d="m 280,-467.63782 120,80"
       id="path6420"
       style="fill:none;stroke:#000000;stroke-width:5;stroke-linecap:butt;stroke-linejoin:miter;stroke-miterlimit:4;stroke-opacity:1;stroke-dasharray:none;marker-end:url(#Arrow1Mend)" />
  </g>
</svg>
